<?xml version="1.0" encoding="iso-8859-1"?>
<!-- Generator: Adobe Illustrator 17.1.0, SVG Export Plug-In . SVG Version: 6.00 Build 0)  -->
<!DOCTYPE svg PUBLIC "-//W3C//DTD SVG 1.1//EN" "http://www.w3.org/Graphics/SVG/1.1/DTD/svg11.dtd">
<svg xmlns="http://www.w3.org/2000/svg" xmlns:xlink="http://www.w3.org/1999/xlink" version="1.1" id="Capa_1" x="0px" y="0px" viewBox="0 0 201.326 201.326" style="enable-background:new 0 0 201.326 201.326;" xml:space="preserve" width="512px" height="512px">
<path d="M61.677,148.002c3.768,0,7.28,1.09,10.245,2.967c-0.3-2.014-0.458-4.073-0.458-6.17c0-22.965,18.617-41.582,41.582-41.582  c18.185,0,33.633,11.678,39.281,27.939c3.781-1.804,8.012-2.816,12.48-2.816c16.028,0,29.021,12.993,29.021,29.02  s-12.993,29.02-29.021,29.02H61.677c-10.598,0-19.189-8.591-19.189-19.189C42.488,156.593,51.079,148.002,61.677,148.002z" fill="#869188"/>
<path d="M164.806,193.881H61.677c-14.717,0-26.689-11.973-26.689-26.689s11.973-26.689,26.689-26.689  c0.825,0,1.647,0.038,2.463,0.113c2.129-25.113,23.25-44.899,48.906-44.899c18.346,0,34.956,10.23,43.365,26.091  c2.729-0.643,5.533-0.967,8.395-0.967c20.138,0,36.521,16.383,36.521,36.521S184.943,193.881,164.806,193.881z M61.677,155.502  c-6.446,0-11.689,5.244-11.689,11.689s5.244,11.689,11.689,11.689h103.128c11.866,0,21.521-9.654,21.521-21.521  c0-11.867-9.654-21.521-21.521-21.521c-3.238,0-6.351,0.702-9.25,2.085c-1.924,0.919-4.151,0.974-6.12,0.151  c-1.969-0.822-3.494-2.444-4.194-4.46c-4.757-13.697-17.695-22.9-32.195-22.9c-18.793,0-34.083,15.289-34.083,34.082  c0,1.683,0.127,3.387,0.377,5.066c0.432,2.902-0.868,5.789-3.326,7.39c-2.458,1.601-5.625,1.621-8.103,0.052  C66.046,156.126,63.891,155.502,61.677,155.502z" fill="#869188"/>
<path d="M82.24,59.98c-2.131,0-4.117,0.617-5.794,1.678c0.169-1.139,0.259-2.304,0.259-3.49c0-12.989-10.529-23.518-23.518-23.518  c-10.285,0-19.022,6.605-22.216,15.802c-2.138-1.02-4.531-1.592-7.058-1.592c-9.065,0-16.413,7.348-16.413,16.413  s7.349,16.413,16.413,16.413H82.24c5.994,0,10.853-4.859,10.853-10.853C93.094,64.839,88.235,59.98,82.24,59.98z" fill="#869188"/>
<path d="M82.24,89.186H23.913C10.728,89.186,0,78.458,0,65.273c0-13.186,10.728-23.914,23.913-23.914  c1.039,0,2.066,0.065,3.081,0.195c5.602-8.826,15.425-14.405,26.194-14.405c15.181,0,27.849,10.963,30.506,25.387  c9.443,0.743,16.9,8.665,16.9,18.296C100.594,80.952,92.36,89.186,82.24,89.186z M23.913,56.359c-4.915,0-8.913,3.999-8.913,8.914  c0,4.915,3.999,8.913,8.913,8.913H82.24c1.849,0,3.354-1.504,3.354-3.353s-1.504-3.353-3.354-3.353  c-0.643,0-1.243,0.173-1.784,0.516c-2.479,1.567-5.645,1.548-8.103-0.053c-2.458-1.601-3.758-4.488-3.326-7.389  c0.118-0.792,0.178-1.595,0.178-2.386c0-8.833-7.186-16.018-16.018-16.018c-6.815,0-12.896,4.325-15.131,10.763  c-0.7,2.016-2.226,3.638-4.195,4.46c-1.968,0.823-4.194,0.767-6.121-0.152C26.543,56.649,25.255,56.359,23.913,56.359z" fill="#869188"/>
<path d="M125.6,38.613c0,3.921,3.178,7.099,7.099,7.099h38.152c5.929,0,10.736-4.807,10.736-10.736s-4.807-10.736-10.736-10.736  c-1.653,0-3.218,0.374-4.617,1.042c-2.089-6.016-7.804-10.336-14.532-10.336c-8.496,0-15.383,6.887-15.383,15.383  c0,0.776,0.059,1.538,0.17,2.283c-1.097-0.694-2.396-1.097-3.79-1.097C128.778,31.514,125.6,34.692,125.6,38.613z" fill="#869188"/>
<path d="M170.852,53.212h-38.152c-8.05,0-14.6-6.549-14.6-14.599c0-6.992,4.94-12.851,11.514-14.271  c2.639-9.724,11.542-16.896,22.089-16.896c7.394,0,14.184,3.565,18.422,9.309c0.241-0.009,0.484-0.014,0.728-0.014  c10.055,0,18.235,8.181,18.235,18.236C189.087,45.031,180.906,53.212,170.852,53.212z M141.478,38.212h29.374  c1.784,0,3.235-1.452,3.235-3.236c0-1.785-1.451-3.236-3.235-3.236c-0.488,0-0.955,0.104-1.387,0.311  c-1.926,0.919-4.151,0.975-6.12,0.152c-1.97-0.822-3.495-2.444-4.195-4.46c-1.101-3.168-4.094-5.297-7.447-5.297  c-4.347,0-7.883,3.537-7.883,7.883c0,0.391,0.029,0.786,0.088,1.174C144.284,34.03,143.349,36.546,141.478,38.212z" fill="#869188"/>
<g>
</g>
<g>
</g>
<g>
</g>
<g>
</g>
<g>
</g>
<g>
</g>
<g>
</g>
<g>
</g>
<g>
</g>
<g>
</g>
<g>
</g>
<g>
</g>
<g>
</g>
<g>
</g>
<g>
</g>
</svg>
