<?xml version="1.0" encoding="iso-8859-1"?>
<!-- Generator: Adobe Illustrator 19.0.0, SVG Export Plug-In . SVG Version: 6.00 Build 0)  -->
<svg version="1.1" id="Capa_1" xmlns="http://www.w3.org/2000/svg" xmlns:xlink="http://www.w3.org/1999/xlink" x="0px" y="0px"
	 viewBox="0 0 512 512" style="enable-background:new 0 0 512 512;" xml:space="preserve">
<path style="fill:#FFDE55;" d="M512,203.208c0,90.508-73.632,164.15-164.15,164.15c-90.508,0-164.15-73.642-164.15-164.15
	c0-90.518,73.642-164.15,164.15-164.15C438.368,39.058,512,112.69,512,203.208z"/>
<path style="fill:#FFD422;" d="M512,203.208c0,90.508-73.632,164.15-164.15,164.15V39.058C438.368,39.058,512,112.69,512,203.208z"
	/>
<path style="fill:#EDF0F5;" d="M509.601,390.974c0,45.198-36.77,81.968-81.968,81.968H81.968C36.77,472.942,0,436.172,0,390.974
	s36.77-81.979,81.968-81.979h37.391c7.604-68,65.449-121.036,135.441-121.036s127.837,53.036,135.442,121.036h37.391
	C472.83,308.995,509.601,345.776,509.601,390.974z"/>
<path style="fill:#D8DCEB;" d="M509.601,390.974c0,45.198-36.77,81.968-81.968,81.968H254.8V187.959
	c69.993,0,127.837,53.036,135.441,121.036h37.391C472.83,308.995,509.601,345.776,509.601,390.974z"/>
<g>
</g>
<g>
</g>
<g>
</g>
<g>
</g>
<g>
</g>
<g>
</g>
<g>
</g>
<g>
</g>
<g>
</g>
<g>
</g>
<g>
</g>
<g>
</g>
<g>
</g>
<g>
</g>
<g>
</g>
</svg>
