<?xml version="1.0" encoding="iso-8859-1"?>
<!-- Generator: Adobe Illustrator 19.0.0, SVG Export Plug-In . SVG Version: 6.00 Build 0)  -->
<svg version="1.1" id="Capa_1" xmlns="http://www.w3.org/2000/svg" xmlns:xlink="http://www.w3.org/1999/xlink" x="0px" y="0px"
	 viewBox="0 0 480.43 480.43" style="enable-background:new 0 0 480.43 480.43;" xml:space="preserve">
<path style="fill:#FFD33F;" d="M321.043,424.429C219.422,424.453,137.023,342.093,137,240.472
	c-0.024-101.62,82.336-184.019,183.957-184.043c59.831-0.014,115.934,29.064,150.415,77.96
	C412.809,20.425,272.949-24.487,158.985,34.075S0.109,232.497,58.671,346.461s198.422,158.876,312.386,100.314
	c43.092-22.143,78.171-57.222,100.314-100.314C436.94,395.371,380.856,424.459,321.043,424.429z"/>
<path style="fill:#505968;" d="M273.043,328.429c0.005-35.346-28.645-64.004-63.991-64.009c-8.611-0.001-17.133,1.735-25.057,5.105
	c-19.036-34.842-62.712-47.655-97.554-28.619c-25.956,14.181-40.577,42.813-36.846,72.155
	c-26.161,4.284-43.896,28.965-39.611,55.127c3.782,23.091,23.661,40.091,47.059,40.241h216c22.091,0,40-17.909,40-40
	S295.134,328.429,273.043,328.429z"/>
<path d="M57.043,416.429h44.912c97.149,90.095,248.94,84.376,339.035-12.773c14.884-16.049,27.501-34.06,37.501-53.531
	c2.031-3.924,0.496-8.751-3.428-10.782c-3.553-1.839-7.918-0.77-10.22,2.502c-39.508,56.1-108.043,84.091-175.528,71.688
	c24.92-9.042,37.792-36.574,28.749-61.494c-5.931-16.345-20.237-28.204-37.397-31.002c-4.077-39.555-39.448-68.315-79.003-64.238
	c-4.85,0.5-9.636,1.491-14.285,2.958c-10.026-14.799-24.719-25.814-41.736-31.288c6.515-96.895,90.346-170.162,187.241-163.646
	c52.924,3.559,101.413,30.818,131.959,74.182c2.542,3.614,7.533,4.482,11.146,1.94c3.272-2.302,4.341-6.667,2.502-10.22
	C418.178,12.768,273.662-33.962,155.705,26.351C52.528,79.106,1.815,198.077,35.203,309.045
	c-20.738,8.634-34.224,28.92-34.16,51.384C1.078,391.343,26.13,416.394,57.043,416.429L57.043,416.429z M412.451,409.229
	c-81.206,70.819-201.309,73.843-285.976,7.2h117.816c54.172,23.639,116.22,20.967,168.16-7.24V409.229z M265.043,16.429
	c54.212-0.113,106.612,19.508,147.416,55.2c-93.128-50.551-209.603-16.035-260.154,77.094
	c-12.786,23.555-20.494,49.526-22.63,76.242c-37.994-4.452-73.739,18.888-84.944,55.464c-22.335-121.432,58-237.978,179.431-260.312
	C237.647,17.637,251.332,16.402,265.043,16.429z M50.843,320.965c4.254-0.667,7.217-4.581,6.704-8.856
	c-0.318-2.548-0.486-5.112-0.504-7.68c-0.018-35.346,28.622-64.014,63.968-64.032c23.294-0.012,44.755,12.634,56.032,33.016
	c1.99,3.579,6.361,5.077,10.128,3.472c28.471-12.08,61.344,1.209,73.424,29.68c2.934,6.916,4.447,14.351,4.448,21.864
	c0,4.418,3.582,8,8,8c17.673,0,32,14.327,32,32s-14.327,32-32,32h-216c-22.091-0.176-39.856-18.227-39.68-40.317
	C17.518,340.657,31.648,324.136,50.843,320.965L50.843,320.965z"/>
<g>
</g>
<g>
</g>
<g>
</g>
<g>
</g>
<g>
</g>
<g>
</g>
<g>
</g>
<g>
</g>
<g>
</g>
<g>
</g>
<g>
</g>
<g>
</g>
<g>
</g>
<g>
</g>
<g>
</g>
</svg>
